Coordinates
version=1
nRows=29
nColumns=24
inDegrees=yes

Units are S.I. units (second, meters, Newtons, ...)
Angles are in degrees.

endheader
time	pelvis_tilt	pelvis_list	pelvis_rotation	pelvis_tx	pelvis_ty	pelvis_tz	hip_flexion_r	hip_adduction_r	hip_rotation_r	knee_angle_r	ankle_angle_r	subtalar_angle_r	mtp_angle_r	hip_flexion_l	hip_adduction_l	hip_rotation_l	knee_angle_l	ankle_angle_l	subtalar_angle_l	mtp_angle_l	lumbar_extension	lumbar_bending	lumbar_rotation
      1.42900000	     -3.01990444	     -1.85770624	     -9.45413018	      0.84996281	      0.97340511	      0.33715426	    -20.89224412	      4.86573785	      6.63520682	     -6.74080867	     16.65564533	     -0.17209974	      1.83649218	     33.68036172	     -5.08402775	    -11.13458494	      1.06694693	     13.15576384	     -4.01919327	     -0.37836973	     -2.67408097	     -0.89672575	      6.93253767
      1.43316667	     -3.06150000	     -1.74785881	     -9.65387208	      0.85635810	      0.97232730	      0.33719162	    -21.11916187	      4.61061721	      6.63726143	     -6.89233808	     16.46676145	     -0.05379799	      1.89371825	     33.76290006	     -5.04673399	    -11.05389066	      0.44332591	     13.65519034	     -4.20420890	     -0.33658681	     -2.54381351	     -1.03826186	      7.07260416
      1.43733333	     -3.14570145	     -1.63507569	     -9.84998364	      0.86279892	      0.97119649	      0.33717587	    -21.28010377	      4.35387015	      6.59669013	     -7.08534540	     16.32125334	      0.19082096	      2.17146595	     33.91801210	     -5.01484702	    -11.10781867	     -0.26895350	     14.19489153	     -4.10177308	     -0.18886350	     -2.36795994	     -1.15481004	      7.52767056
      1.44150000	     -3.15952188	     -1.50093494	    -10.01101847	      0.86935245	      0.97016441	      0.33711351	    -21.52496751	      4.07006609	      6.48475996	     -7.24635264	     16.06257070	      0.40078893	      4.37627036	     33.97395789	     -4.92842620	    -11.15022346	     -0.94544331	     14.71129909	     -4.00769492	      0.98078866	     -2.27180290	     -1.31439456	      7.57469979
      1.44566667	     -3.22389299	     -1.38361052	    -10.18587759	      0.87592523	      0.96908445	      0.33709296	    -21.70502663	      3.81638147	      6.47855971	     -7.44387902	     15.82282998	      0.47975928	      4.40057112	     34.03796825	     -4.85698431	    -10.96725556	     -1.55595663	     15.12058428	     -4.25644222	      1.00759981	     -2.09428830	     -1.46077057	      7.73958297
      1.44983333	     -3.30266755	     -1.25964404	    -10.36028459	      0.88254531	      0.96800381	      0.33703209	    -21.84638733	      3.55219845	      6.42305613	     -7.68343127	     15.59653695	      0.66602999	      4.52519379	     34.11498296	     -4.77679354	    -10.82849863	     -2.17826280	     15.44273904	     -4.47703217	      1.09061627	     -1.90312766	     -1.59040831	      8.13972767
      1.45400000	     -3.35217375	     -1.11868214	    -10.50075224	      0.88925300	      0.96696829	      0.33693199	    -22.02617335	      3.27684866	      6.34628923	     -7.90405156	     15.32253370	      0.82001706	      4.62754160	     34.15173970	     -4.65337108	    -10.66370806	     -2.78683690	     15.76587112	     -4.65059612	      1.16527705	     -1.73875266	     -1.76454535	      8.30761651
      1.45816667	     -3.41054687	     -0.96629667	    -10.65179843	      0.89601199	      0.96595803	      0.33682918	    -22.16568729	      2.98472899	      6.23701037	     -8.18146150	     15.05348154	      1.02071362	      4.80096986	     34.17982338	     -4.52032055	    -10.51937513	     -3.36910795	     16.00210996	     -4.85012751	      1.28695435	     -1.54683620	     -1.94009044	      8.56066450
      1.46233333	     -3.44817602	     -0.81029303	    -10.80584133	      0.90282237	      0.96500813	      0.33671348	    -22.32012946	      2.68477537	      6.16755496	     -8.46842638	     14.73076243	      1.13603029	      4.87717395	     34.17356870	     -4.37667783	    -10.38757851	     -3.92774770	     16.20072946	     -5.04745905	      1.35006559	     -1.36865565	     -2.10714085	      8.65120628
      1.46650000	     -3.51848267	     -0.63724353	    -10.92196840	      0.90966300	      0.96402093	      0.33651528	    -22.40633331	      2.38100038	      5.98246257	     -8.81815408	     14.46509984	      1.42598063	      5.20019450	     34.19762756	     -4.18937562	    -10.14523714	     -4.46028322	     16.21038586	     -5.40420472	      1.57209641	     -1.16343400	     -2.31296905	      9.00865617
      1.47066667	     -3.54840695	     -0.45607749	    -11.04614267	      0.91657460	      0.96313724	      0.33634536	    -22.54142816	      2.06437292	      5.86978387	     -9.14528912	     14.06770617	      1.51523222	      5.30757546	     34.17622575	     -3.99735993	    -10.01445206	     -4.99333965	     16.29244567	     -5.60538220	      1.65582542	     -0.96829809	     -2.50388492	      9.05450592
      1.47483333	     -3.62141832	     -0.27291339	    -11.14044595	      0.92348020	      0.96220953	      0.33609212	    -22.59777465	      1.76083174	      5.70106388	     -9.52553435	     13.61669223	      1.63546721	      9.39471231	     34.19029022	     -3.77646140	     -9.69789013	     -5.46832104	     16.02629319	     -6.16001164	      4.45305615	     -0.75842534	     -2.70149545	      9.24036449
      1.47900000	     -3.63510007	     -0.05590189	    -11.22194273	      0.93045381	      0.96140783	      0.33581240	    -22.69372342	      1.41229221	      5.45499381	     -9.95017949	     13.25959966	      1.89016115	      9.47582555	     34.15308581	     -3.51153205	     -9.50723832	     -5.96247863	     15.81587190	     -6.50001959	      4.48623463	     -0.59633965	     -2.95765004	      9.42038464
      1.48316667	     -3.67425767	      0.15560632	    -11.27574618	      0.93746849	      0.96060422	      0.33549714	    -22.76773186	      1.09168342	      5.26273900	    -10.35901161	     12.75901256	      1.96338930	      9.50806560	     34.16717635	     -3.24834381	     -9.36219706	     -6.49750937	     15.62156798	     -6.69489841	      4.50993704	     -0.38138768	     -3.18964106	      9.46790447
      1.48733333	     -3.72811538	      0.38987509	    -11.31481786	      0.94446982	      0.95981698	      0.33510714	    -22.76779182	      0.74769278	      4.96923214	    -10.88087479	     12.40303893	      2.24890001	      9.75556381	     34.16230953	     -2.92275275	     -8.89879812	     -6.92168387	     15.08596453	     -7.52268855	      4.65537727	     -0.17926226	     -3.45695142	      9.66605654
      1.49150000	     -3.75795441	      0.64060902	    -11.32320341	      0.95151680	      0.95910681	      0.33468247	    -22.79556768	      0.39873323	      4.68225321	    -11.38440485	     11.91695395	      2.38792076	     10.07841525	     34.16146273	     -2.57283857	     -8.55592076	     -7.39195440	     14.57437076	     -8.12244464	      4.85016599	      0.01634834	     -3.75073565	      9.71007266
      1.49566667	     -3.79882074	      0.90012554	    -11.30768689	      0.95857248	      0.95842199	      0.33419340	    -22.78522597	      0.04937091	      4.35580236	    -11.93374123	     11.40030045	      2.55000061	     10.45991184	     34.19926951	     -2.20492235	     -8.21702555	     -7.90453730	     14.00642623	     -8.70556566	      5.07137303	      0.22523391	     -4.05067049	      9.76958056
      1.49983333	     -3.78050916	      1.14924226	    -11.25732005	      0.96562399	      0.95788466	      0.33365212	    -22.85677450	     -0.27826179	      4.09682532	    -12.42250821	     10.63408875	      2.44765739	     13.57974304	     34.18828053	     -1.81625574	     -7.83745131	     -8.42373903	     13.29947778	     -9.34498794	      6.73899988	      0.33026865	     -4.34440664	      9.70003429
      1.50400000	     -3.84303125	      1.44100371	    -11.19975986	      0.97271363	      0.95725179	      0.33303697	    -22.74713335	     -0.65554329	      3.60254917	    -13.11086090	     10.14911822	      2.82382173	     13.71527116	     34.30993728	     -1.40753270	     -7.57087462	     -9.03922605	     12.73061531	     -9.77419273	      6.78734247	      0.58449039	     -4.67041677	      9.81430598
      1.50816667	     -3.84620427	      1.73172172	    -11.09682347	      0.97979073	      0.95676618	      0.33235022	    -22.71768301	     -1.01638563	      3.16319452	    -13.75267930	      9.50088873	      2.97379124	     13.96570484	     34.36693835	     -0.94988984	     -7.14404382	     -9.62908333	     12.02261253	    -10.45339610	      6.87320519	      0.72874130	     -5.00965583	      9.77733321
      1.51233333	     -3.84091454	      2.02844176	    -10.96610392	      0.98687113	      0.95634994	      0.33160091	    -22.67423762	     -1.37888864	      2.67594771	    -14.43135679	      8.80494318	      3.14840598	     14.33237804	     34.44438794	     -0.47414463	     -6.74326575	    -10.28032204	     11.30968270	    -11.07421756	      6.99891968	      0.86584932	     -5.35428479	      9.74440850
      1.51650000	     -3.82271175	      2.33078043	    -10.82302086	      0.99398411	      0.95599722	      0.33085127	    -22.63986302	     -1.73737892	      2.21437486	    -15.11096103	      7.99637906	      3.14905331	     14.40221544	     34.57666343	     -0.01997090	     -6.60663756	    -11.09834621	     10.87945161	    -11.17761964	      7.02369987	      1.01557040	     -5.70981384	      9.73651978
      1.52066667	     -3.81654137	      2.68305759	    -10.64569411	      1.00108172	      0.95566743	      0.32994888	    -22.52777919	     -2.15850769	      1.58327038	    -15.91519277	      7.34663135	      3.47191058	     14.83110228	     34.68024237	      0.55258755	     -6.08047690	    -11.79243860	     10.10942088	    -12.07866465	      7.14811572	      1.14181229	     -6.14095108	      9.58389463
      1.52483333	     -3.76754351	      3.02927419	    -10.44916703	      1.00821464	      0.95546077	      0.32904310	    -22.47134905	     -2.56742644	      0.97484196	    -16.68747429	      6.51322104	      3.60789967	     15.38701690	     34.77815814	      1.11347272	     -5.72241500	    -12.58951705	      9.49990962	    -12.62999596	      7.30167397	      1.22283322	     -6.56952359	      9.48227681
      1.52900000	     -3.72472759	      3.34351637	    -10.24932727	      1.01530482	      0.95531696	      0.32810204	    -22.39372551	     -2.94419942	      0.40560477	    -17.46203587	      5.43835542	      3.64805636	     20.26961497	     34.91314806	      1.63066199	     -5.46474765	    -13.47593000	      8.97129341	    -12.99931682	      8.38656411	      1.29774152	     -6.93884159	      9.44358992
      1.53316667	     -3.64190489	      3.68742455	     -9.99240209	      1.02244191	      0.95523340	      0.32704638	    -22.33298713	     -3.35382371	     -0.32993006	    -18.31545981	      4.56912884	      3.85488674	     20.33386424	     35.02703293	      2.21258703	     -5.21073191	    -14.41173666	      8.60172900	    -13.22488120	      8.36884755	      1.32516494	     -7.36270028	      9.28054869
      1.53733333	     -3.55601403	      4.01429777	     -9.73171649	      1.02955201	      0.95522985	      0.32595852	    -22.26021609	     -3.74832196	     -1.03531887	    -19.18389886	      3.57880627	      4.02032057	     20.48574036	     35.13131527	      2.78574135	     -4.93362469	    -15.34602144	      8.18920058	    -13.55771327	      8.35165656	      1.33337184	     -7.76190704	      9.13434452
      1.54150000	     -3.46549703	      4.31567476	     -9.46918810	      1.03665088	      0.95528369	      0.32488313	    -22.17853113	     -4.11425027	     -1.71170488	    -20.07133318	      2.49452138	      4.04319912	     20.51289052	     35.25301989	      3.31417516	     -4.79094782	    -16.36383227	      7.97559149	    -13.60765770	      8.34681968	      1.36245450	     -8.11550188	      9.10749601
      1.54566667	     -3.33131400	      4.67880284	     -9.18102090	      1.04377964	      0.95543839	      0.32369862	    -22.10792172	     -4.57034445	     -2.53145746	    -21.02579444	      1.48738378	      4.28592529	     20.71434520	     35.28140610	      3.95103665	     -4.52754467	    -17.26372456	      7.63619355	    -13.94407251	      8.32779528	      1.28665500	     -8.58417523	      8.82188662
